<svg width="100%" height="100%" viewBox="0 0 2100 900" version="1.1" xmlns="http://www.w3.org/2000/svg" xmlnsXlink="http://www.w3.org/1999/xlink" xmlSpace="preserve" xmlnsSerif="http://www.serif.com/" style="fill-rule:evenodd;clip-rule:evenodd;stroke-linejoin:round;stroke-miterlimit:2;">
    <g transform="matrix(1.0219,0,0,1.04737,-34.7538,-42.6316)">
        <path d="M35.572,898.748L34.009,343.203L43,333L201,331C201,331 207.394,358.074 213,374C218.606,389.926 222,397 222,397C222,397 202.952,417.401 185,421C167.048,424.599 158,422 158,422C158,422 157.837,457.39 154,482C150.163,506.61 148,536.305 148,536.305C148,536.305 177.937,532.231 204,536.305C230.063,540.379 263.092,535.631 271,527C278.908,518.369 279,466 279,466L275,432C275,432 268.147,422.717 258,422C247.853,421.283 243,403 243,403L219,333L504,331C504,331 504.609,343.89 502,352C499.391,360.11 461.247,353.083 437,366C412.753,378.917 399.811,401.044 399,427C398.189,452.956 398,521 398,521L405.265,526.928L499,526C499,526 514.328,532.426 518,531C521.672,529.574 529.861,514.359 527,463C524.139,411.641 521,403 521,403L527.301,377.249L543,348L547,331L742,331C742,331 740.309,371.481 744,382C747.691,392.519 747.724,406.538 742,412C736.276,417.462 666,417 666,417C666,417 641.927,413.981 639,461C636.073,508.019 629.01,531.91 646,533C662.99,534.09 717,533 717,533L753,534C753,534 768.73,535.977 772,516C775.27,496.023 774,444 774,444C774,444 766.01,410.055 767,393C767.99,375.945 773.633,355.984 775,350C776.367,344.016 776,332 776,332C776,332 851.547,330.583 866,332C880.453,333.417 899.13,338.079 911,338C922.87,337.921 962,340 962,340C962,340 961.332,359.032 966,372C970.668,384.968 969,402 969,402C969,402 932.436,402.78 923,407C913.564,411.22 873.346,426.071 876,461C878.654,495.929 890.46,491.912 890,511C889.813,518.757 889.778,523.842 889.802,527.147C889.838,531.974 897,533 897,533L969,531L1001,530C1001,530 1016.31,530.61 1017,512C1017.69,493.39 1021,469 1021,469C1021,469 1024.2,448.322 1015,427C1005.8,405.678 998.587,412.219 994,398C989.413,383.781 993,363 993,363C993,363 1002.21,352.135 995,347C987.786,341.865 994,332 994,332L1233,331C1233,331 1232.97,345.108 1226,352C1219.03,358.892 1222.78,372.068 1221,379C1219.22,385.932 1217.65,397.747 1207,402C1196.35,406.253 1146.69,402.416 1139,424C1131.31,445.584 1131,464 1131,464C1131,464 1133.78,504.779 1135,513C1136.22,521.221 1139.41,529.026 1152,529C1164.59,528.974 1223,527 1223,527L1252,527C1252,527 1260.25,522.998 1260.56,516.768C1261.33,501.19 1262.47,471.68 1261,456C1258.94,434.05 1259,425 1259,425C1259,425 1259.71,412.798 1251,411C1242.29,409.202 1244.44,392.425 1247,387C1249.56,381.575 1256.52,362.327 1257,351C1257.48,339.673 1257,332 1257,332L1478,333C1478,333 1470.21,351.081 1467,371C1463.79,390.919 1466.88,407.053 1451,410C1435.12,412.947 1387.41,405.404 1383,432C1378.59,458.596 1375.02,482.722 1378,497C1380.98,511.278 1378.42,526.798 1401,527C1423.58,527.202 1456,524 1456,524C1456,524 1469.53,522.03 1479,528C1488.47,533.97 1505.76,532.997 1507,509C1508.24,485.003 1508,440 1508,440C1508,440 1506.17,420.925 1495,420C1483.83,419.075 1482.58,404.185 1485,390C1487.42,375.815 1491.03,365.379 1494,356C1496.97,346.621 1501,333 1501,333L1711,332C1711,332 1712.27,345.534 1709,352C1705.74,358.466 1701.52,369.79 1695,377C1688.48,384.21 1682,394 1682,394C1682,394 1667.13,395.847 1651,396C1634.87,396.153 1624,397 1624,397C1624,397 1619.88,423.44 1622,437C1624.12,450.56 1622.88,485.561 1624,499C1625.12,512.439 1622.26,525.478 1640,527C1657.74,528.522 1705,526 1705,526C1705,526 1730.63,525.622 1739,526C1747.37,526.378 1755.91,522.946 1757,509C1758.09,495.054 1757,443 1757,443C1757,443 1757.17,413.179 1747,398C1736.83,382.821 1732.91,372.797 1723,371C1713.09,369.203 1721,333 1721,333L1975,330C1975,330 1961.47,348.666 1958,362C1954.53,375.334 1953.87,393.683 1943,400C1932.13,406.317 1907.44,410.447 1896,411C1884.56,411.553 1873.66,410.154 1873,439C1872.34,467.846 1870,503 1870,503C1870,503 1867.58,521.862 1888,523C1908.42,524.138 1951,525 1951,525L1988,524C1988,524 2002.63,515.935 2002,502C2001.37,488.065 2002.92,454.204 2002,442C2001.08,429.796 1998.41,416.604 1982,412C1965.59,407.396 1964.88,393.405 1972,382C1979.12,370.595 1981.83,357.988 1986,348C1990.17,338.012 1994,332 1994,332L2072.5,330.236L2083,340L2089,900L35.572,898.748Z" style="fill:white;"/>
    </g>
</svg>
